<svg width="60" height="23" viewBox="0 0 60 23" fill="none" xmlns="http://www.w3.org/2000/svg">
<path d="M17.8125 7.9082C17.8125 8.85547 17.6709 9.69531 17.3877 10.4277C17.1045 11.1602 16.7139 11.7998 16.2158 12.3467C15.7275 12.8936 15.1514 13.3574 14.4873 13.7383C13.8232 14.1191 13.1104 14.4316 12.3486 14.6758C11.5967 14.9102 10.8154 15.0859 10.0049 15.2031C9.19434 15.3105 8.39844 15.3691 7.61719 15.3789V22.2051H0.791016C0.791016 19.9688 0.795898 17.7422 0.805664 15.5254C0.81543 13.3086 0.830078 11.0723 0.849609 8.81641C0.869141 7.625 0.874023 6.43359 0.864258 5.24219C0.854492 4.05078 0.878906 2.84961 0.9375 1.63867C2.1875 1.26758 3.4375 0.989258 4.6875 0.803711C5.9375 0.618164 7.22656 0.525391 8.55469 0.525391C9.30664 0.525391 10.0586 0.588867 10.8105 0.71582C11.5625 0.833008 12.2803 1.02344 12.9639 1.28711C13.6572 1.55078 14.2969 1.88281 14.8828 2.2832C15.4785 2.67383 15.9912 3.14258 16.4209 3.68945C16.8506 4.23633 17.1875 4.86133 17.4316 5.56445C17.6855 6.25781 17.8125 7.03906 17.8125 7.9082ZM11.3086 8.40625C11.3086 7.77148 11.1133 7.27832 10.7227 6.92676C10.3418 6.56543 9.84375 6.38477 9.22852 6.38477C9.02344 6.38477 8.80859 6.4043 8.58398 6.44336C8.36914 6.47266 8.16406 6.51172 7.96875 6.56055L7.79297 10.8379C7.92969 10.8574 8.06152 10.8672 8.18848 10.8672C8.31543 10.8672 8.44727 10.8672 8.58398 10.8672C8.93555 10.8672 9.27246 10.8086 9.59473 10.6914C9.92676 10.5742 10.2197 10.4082 10.4736 10.1934C10.7275 9.96875 10.9277 9.70996 11.0742 9.41699C11.2305 9.11426 11.3086 8.77734 11.3086 8.40625ZM37.0312 2.16602L28.9746 13.416L28.5938 22.5859H21.6504L21.8262 13.4746L17.6367 2.60547L25.1074 1.66797L26.2793 7.99609L30 1.66797L37.0312 2.16602ZM59.0771 0.642578L57.7295 22.1465L51.0498 22.4395L51.1084 11.1016L48.0908 20.2422H45.5127L43.1982 12.0684L43.1689 21.5605L36.4014 21.7656L36.6943 1.52148L44.2236 1.22852L47.2119 10.9258L51.1963 0.642578H59.0771Z" fill="#FAE545"/>
</svg>
